<svg xmlns="http://www.w3.org/2000/svg" xmlns:xlink="http://www.w3.org/1999/xlink" contentStyleType="text/css" data-diagram-type="CLASS" height="869px" preserveAspectRatio="none" style="width:1548px;height:869px;background:#FFFFFF;" version="1.1" viewBox="0 0 1548 869" width="1548px" zoomAndPan="magnify"><title>FastAPI RealWorld - Database Schema</title><defs/><g><g class="title" data-source-line="2"><text fill="#000000" font-family="Verdana" font-size="22" font-weight="bold" lengthAdjust="spacing" textLength="476.6738" x="531.212" y="35.4209">FastAPI RealWorld - Database Schema</text></g><!--class user--><g class="entity" data-entity="user" data-source-line="15" data-uid="ent0002" id="entity_user"><rect fill="#FFFFFF" height="198.6719" rx="2.5" ry="2.5" style="stroke:#000000;stroke-width:1;" width="304.2637" x="523.23" y="58.6094"/><ellipse cx="660.7061" cy="72.6094" fill="#FFFFFF" rx="9" ry="9" style="stroke:#000000;stroke-width:1;"/><path d="M664.8154,78.6094 L657.0967,78.6094 L657.0967,66.2188 L664.8154,66.2188 L664.8154,68.375 L659.5498,68.375 L659.5498,71.0469 L664.3154,71.0469 L664.3154,73.2031 L659.5498,73.2031 L659.5498,76.4531 L664.8154,76.4531 L664.8154,78.6094 Z " fill="#000000"/><text fill="#000000" font-family="Verdana" font-size="10" lengthAdjust="spacing" textLength="21.8115" x="678.2061" y="76.0713">user</text><line style="stroke:#000000;stroke-width:1;" x1="524.23" x2="826.4937" y1="86.6094" y2="86.6094"/><text fill="#000000" font-family="Verdana" font-size="14" font-weight="bold" lengthAdjust="spacing" textLength="14.8203" x="529.23" y="103.6045">id</text><text fill="#000000" font-family="Verdana" font-size="14" lengthAdjust="spacing" textLength="228.1152" x="548.5005" y="103.6045">: INTEGER &#171;PK&#187; (autoincrement)</text><line style="stroke:#000000;stroke-width:1;" x1="524.23" x2="826.4937" y1="110.9063" y2="110.9063"/><text fill="#000000" font-family="Verdana" font-size="14" font-weight="bold" lengthAdjust="spacing" textLength="78.1963" x="529.23" y="127.9014">username</text><text fill="#000000" font-family="Verdana" font-size="14" lengthAdjust="spacing" textLength="188.9795" x="611.8765" y="127.9014">: STRING &#171;UK&#187; (NOT NULL)</text><text fill="#000000" font-family="Verdana" font-size="14" font-weight="bold" lengthAdjust="spacing" textLength="43.1279" x="529.23" y="144.1982">email</text><text fill="#000000" font-family="Verdana" font-size="14" lengthAdjust="spacing" textLength="188.9795" x="576.8081" y="144.1982">: STRING &#171;UK&#187; (NOT NULL)</text><text fill="#000000" font-family="Verdana" font-size="14" font-weight="bold" lengthAdjust="spacing" textLength="139.8428" x="529.23" y="160.4951">hashed_password</text><text fill="#000000" font-family="Verdana" font-size="14" lengthAdjust="spacing" textLength="147.9707" x="673.523" y="160.4951">: STRING (NOT NULL)</text><text fill="#000000" font-family="Verdana" font-size="14" lengthAdjust="spacing" textLength="157.1787" x="529.23" y="176.792">bio : TEXT (default: "")</text><text fill="#000000" font-family="Verdana" font-size="14" lengthAdjust="spacing" textLength="196.5195" x="529.23" y="193.0889">image : STRING (default: "")</text><line style="stroke:#000000;stroke-width:1;" x1="524.23" x2="826.4937" y1="200.3906" y2="200.3906"/><text fill="#000000" font-family="Verdana" font-size="14" lengthAdjust="spacing" textLength="59.4111" x="529.23" y="217.3857">Indexes:</text><text fill="#000000" font-family="Verdana" font-size="14" lengthAdjust="spacing" textLength="203.041" x="529.23" y="233.6826">&#8226; ix_user_username (unique)</text><text fill="#000000" font-family="Verdana" font-size="14" lengthAdjust="spacing" textLength="171.4111" x="529.23" y="249.9795">&#8226; ix_user_email (unique)</text></g><!--class article--><g class="entity" data-entity="article" data-source-line="29" data-uid="ent0003" id="entity_article"><rect fill="#FFFFFF" height="190.6719" rx="2.5" ry="2.5" style="stroke:#000000;stroke-width:1;" width="350.8096" x="271.96" y="317.2894"/><ellipse cx="427.9312" cy="331.2894" fill="#FFFFFF" rx="9" ry="9" style="stroke:#000000;stroke-width:1;"/><path d="M432.0406,337.2894 L424.3218,337.2894 L424.3218,324.8987 L432.0406,324.8987 L432.0406,327.055 L426.7749,327.055 L426.7749,329.7269 L431.5406,329.7269 L431.5406,331.8831 L426.7749,331.8831 L426.7749,335.1331 L432.0406,335.1331 L432.0406,337.2894 Z " fill="#000000"/><text fill="#000000" font-family="Verdana" font-size="10" lengthAdjust="spacing" textLength="31.3672" x="445.4312" y="334.7513">article</text><line style="stroke:#000000;stroke-width:1;" x1="272.96" x2="621.7696" y1="345.2894" y2="345.2894"/><text fill="#000000" font-family="Verdana" font-size="14" font-weight="bold" lengthAdjust="spacing" textLength="14.8203" x="277.96" y="362.2845">id</text><text fill="#000000" font-family="Verdana" font-size="14" lengthAdjust="spacing" textLength="109.792" x="297.2305" y="362.2845">: INTEGER &#171;PK&#187;</text><line style="stroke:#000000;stroke-width:1;" x1="272.96" x2="621.7696" y1="369.5862" y2="369.5862"/><text fill="#000000" font-family="Verdana" font-size="14" font-weight="bold" lengthAdjust="spacing" textLength="33.1201" x="277.96" y="386.5814">slug</text><text fill="#000000" font-family="Verdana" font-size="14" lengthAdjust="spacing" textLength="188.9795" x="315.5303" y="386.5814">: STRING &#171;UK&#187; (NOT NULL)</text><text fill="#000000" font-family="Verdana" font-size="14" font-weight="bold" lengthAdjust="spacing" textLength="32.4775" x="277.96" y="402.8782">title</text><text fill="#000000" font-family="Verdana" font-size="14" lengthAdjust="spacing" textLength="147.9707" x="314.8877" y="402.8782">: STRING (NOT NULL)</text><text fill="#000000" font-family="Verdana" font-size="14" font-weight="bold" lengthAdjust="spacing" textLength="88.9492" x="277.96" y="419.1751">description</text><text fill="#000000" font-family="Verdana" font-size="14" lengthAdjust="spacing" textLength="147.9707" x="371.3594" y="419.1751">: STRING (NOT NULL)</text><text fill="#000000" font-family="Verdana" font-size="14" font-weight="bold" lengthAdjust="spacing" textLength="38.7871" x="277.96" y="435.472">body</text><text fill="#000000" font-family="Verdana" font-size="14" lengthAdjust="spacing" textLength="130.8945" x="321.1973" y="435.472">: TEXT (NOT NULL)</text><text fill="#000000" font-family="Verdana" font-size="14" font-weight="bold" lengthAdjust="spacing" textLength="54.9063" x="277.96" y="451.7689">tagList</text><text fill="#000000" font-family="Verdana" font-size="14" lengthAdjust="spacing" textLength="204.5928" x="337.3164" y="451.7689">: ARRAY(STRING) (default: [])</text><text fill="#000000" font-family="Verdana" font-size="14" font-weight="bold" lengthAdjust="spacing" textLength="74.416" x="277.96" y="468.0657">author_id</text><text fill="#000000" font-family="Verdana" font-size="14" lengthAdjust="spacing" textLength="195.5898" x="356.8262" y="468.0657">: INTEGER &#171;FK&#187; (NOT NULL)</text><text fill="#000000" font-family="Verdana" font-size="14" lengthAdjust="spacing" textLength="334.2295" x="277.96" y="484.3626">created_at : STRING/DATETIME (&#9888;&#65039; inconsistent)</text><text fill="#000000" font-family="Verdana" font-size="14" lengthAdjust="spacing" textLength="338.8096" x="277.96" y="500.6595">updated_at : STRING/DATETIME (&#9888;&#65039; inconsistent)</text></g><!--class comment--><g class="entity" data-entity="comment" data-source-line="42" data-uid="ent0004" id="entity_comment"><rect fill="#FFFFFF" height="141.7813" rx="2.5" ry="2.5" style="stroke:#000000;stroke-width:1;" width="286.4561" x="669.14" y="567.9594"/><ellipse cx="784.8631" cy="581.9594" fill="#FFFFFF" rx="9" ry="9" style="stroke:#000000;stroke-width:1;"/><path d="M788.9725,587.9594 L781.2538,587.9594 L781.2538,575.5687 L788.9725,575.5687 L788.9725,577.725 L783.7069,577.725 L783.7069,580.3969 L788.4725,580.3969 L788.4725,582.5531 L783.7069,582.5531 L783.7069,585.8031 L788.9725,585.8031 L788.9725,587.9594 Z " fill="#000000"/><text fill="#000000" font-family="Verdana" font-size="10" lengthAdjust="spacing" textLength="47.5098" x="802.3631" y="585.4213">comment</text><line style="stroke:#000000;stroke-width:1;" x1="670.14" x2="954.5961" y1="595.9594" y2="595.9594"/><text fill="#000000" font-family="Verdana" font-size="14" font-weight="bold" lengthAdjust="spacing" textLength="14.8203" x="675.14" y="612.9545">id</text><text fill="#000000" font-family="Verdana" font-size="14" lengthAdjust="spacing" textLength="109.792" x="694.4105" y="612.9545">: INTEGER &#171;PK&#187;</text><line style="stroke:#000000;stroke-width:1;" x1="670.14" x2="954.5961" y1="620.2562" y2="620.2562"/><text fill="#000000" font-family="Verdana" font-size="14" font-weight="bold" lengthAdjust="spacing" textLength="38.7871" x="675.14" y="637.2514">body</text><text fill="#000000" font-family="Verdana" font-size="14" lengthAdjust="spacing" textLength="147.9707" x="718.3773" y="637.2514">: STRING (NOT NULL)</text><text fill="#000000" font-family="Verdana" font-size="14" font-weight="bold" lengthAdjust="spacing" textLength="72.2559" x="675.14" y="653.5482">article_id</text><text fill="#000000" font-family="Verdana" font-size="14" lengthAdjust="spacing" textLength="195.5898" x="751.8461" y="653.5482">: INTEGER &#171;FK&#187; (NOT NULL)</text><text fill="#000000" font-family="Verdana" font-size="14" font-weight="bold" lengthAdjust="spacing" textLength="74.416" x="675.14" y="669.8451">author_id</text><text fill="#000000" font-family="Verdana" font-size="14" lengthAdjust="spacing" textLength="195.5898" x="754.0062" y="669.8451">: INTEGER &#171;FK&#187; (NOT NULL)</text><text fill="#000000" font-family="Verdana" font-size="14" lengthAdjust="spacing" textLength="211.8047" x="675.14" y="686.142">created_at : STRING (nullable)</text><text fill="#000000" font-family="Verdana" font-size="14" lengthAdjust="spacing" textLength="216.3848" x="675.14" y="702.4389">updated_at : STRING (nullable)</text></g><!--class follower--><g class="entity" data-entity="follower" data-source-line="53" data-uid="ent0005" id="entity_follower"><rect fill="#FFFFFF" height="92.8906" rx="2.5" ry="2.5" style="stroke:#000000;stroke-width:1;" width="291.5078" x="1029.61" y="592.3994"/><ellipse cx="1151.736" cy="606.3994" fill="#FFFFFF" rx="9" ry="9" style="stroke:#000000;stroke-width:1;"/><path d="M1155.8454,612.3994 L1148.1266,612.3994 L1148.1266,600.0088 L1155.8454,600.0088 L1155.8454,602.165 L1150.5797,602.165 L1150.5797,604.8369 L1155.3454,604.8369 L1155.3454,606.9931 L1150.5797,606.9931 L1150.5797,610.2431 L1155.8454,610.2431 L1155.8454,612.3994 Z " fill="#000000"/><text fill="#000000" font-family="Verdana" font-size="10" lengthAdjust="spacing" textLength="39.7559" x="1169.236" y="609.8613">follower</text><line style="stroke:#000000;stroke-width:1;" x1="1030.61" x2="1320.1178" y1="620.3994" y2="620.3994"/><text fill="#000000" font-family="Verdana" font-size="14" font-weight="bold" lengthAdjust="spacing" textLength="86.0781" x="1035.61" y="637.3945">follower_id</text><text fill="#000000" font-family="Verdana" font-size="14" lengthAdjust="spacing" textLength="131.4756" x="1126.1383" y="637.3945">: INTEGER &#171;PK,FK&#187;</text><text fill="#000000" font-family="Verdana" font-size="14" font-weight="bold" lengthAdjust="spacing" textLength="88.6689" x="1035.61" y="653.6914">followee_id</text><text fill="#000000" font-family="Verdana" font-size="14" lengthAdjust="spacing" textLength="131.4756" x="1128.7291" y="653.6914">: INTEGER &#171;PK,FK&#187;</text><line style="stroke:#000000;stroke-width:1;" x1="1030.61" x2="1320.1178" y1="660.9931" y2="660.9931"/><text fill="#000000" font-family="Verdana" font-size="14" lengthAdjust="spacing" textLength="279.5078" x="1035.61" y="677.9882">Composite PK: (follower_id, followee_id)</text></g><!--class favorite--><g class="entity" data-entity="favorite" data-source-line="60" data-uid="ent0006" id="entity_favorite"><rect fill="#FFFFFF" height="92.8906" rx="2.5" ry="2.5" style="stroke:#000000;stroke-width:1;" width="251.7842" x="506.47" y="769.7394"/><ellipse cx="591.1048" cy="783.7394" fill="#FFFFFF" rx="9" ry="9" style="stroke:#000000;stroke-width:1;"/><path d="M595.2141,789.7394 L587.4954,789.7394 L587.4954,777.3488 L595.2141,777.3488 L595.2141,779.505 L589.9485,779.505 L589.9485,782.1769 L594.7141,782.1769 L594.7141,784.3331 L589.9485,784.3331 L589.9485,787.5831 L595.2141,787.5831 L595.2141,789.7394 Z " fill="#000000"/><text fill="#000000" font-family="Verdana" font-size="10" lengthAdjust="spacing" textLength="75.0146" x="608.6048" y="787.2013">article_favorite</text><line style="stroke:#000000;stroke-width:1;" x1="507.47" x2="757.2542" y1="797.7394" y2="797.7394"/><text fill="#000000" font-family="Verdana" font-size="14" font-weight="bold" lengthAdjust="spacing" textLength="56.5195" x="512.47" y="814.7345">user_id</text><text fill="#000000" font-family="Verdana" font-size="14" lengthAdjust="spacing" textLength="131.4756" x="573.4397" y="814.7345">: INTEGER &#171;PK,FK&#187;</text><text fill="#000000" font-family="Verdana" font-size="14" font-weight="bold" lengthAdjust="spacing" textLength="72.2559" x="512.47" y="831.0314">article_id</text><text fill="#000000" font-family="Verdana" font-size="14" lengthAdjust="spacing" textLength="131.4756" x="589.1761" y="831.0314">: INTEGER &#171;PK,FK&#187;</text><line style="stroke:#000000;stroke-width:1;" x1="507.47" x2="757.2542" y1="838.3331" y2="838.3331"/><text fill="#000000" font-family="Verdana" font-size="14" lengthAdjust="spacing" textLength="239.7842" x="512.47" y="855.3282">Composite PK: (user_id, article_id)</text></g><ellipse cx="1191.37" cy="412.6194" fill="#000000" rx="2" ry="2" style="stroke:#000000;stroke-width:1;"/><ellipse cx="1230.37" cy="412.6194" fill="#000000" rx="2" ry="2" style="stroke:#000000;stroke-width:1;"/><ellipse cx="50.37" cy="638.8494" fill="#000000" rx="2" ry="2" style="stroke:#000000;stroke-width:1;"/><ellipse cx="632.37" cy="638.8494" fill="#000000" rx="2" ry="2" style="stroke:#000000;stroke-width:1;"/><g class="entity" data-entity="GMN32" data-source-line="82" data-uid="ent0033" id="entity_GMN32"><path d="M728.83,384.9194 L728.83,440.3178 A0,0 0 0 0 728.83,440.3178 L831.37,440.3178 L835.37,567.9294 L839.37,440.3178 L941.9037,440.3178 A0,0 0 0 0 941.9037,440.3178 L941.9037,394.9194 L931.9037,384.9194 L728.83,384.9194 A0,0 0 0 0 728.83,384.9194" fill="#FFFFFF" style="stroke:#000000;stroke-width:1;"/><path d="M931.9037,384.9194 L931.9037,394.9194 L941.9037,394.9194 L931.9037,384.9194" fill="#FFFFFF" style="stroke:#000000;stroke-width:1;"/><text fill="#000000" font-family="Verdana" font-size="13" lengthAdjust="spacing" textLength="113.5278" x="734.83" y="401.9863">Cascade DELETE:</text><text fill="#000000" font-family="Verdana" font-size="13" lengthAdjust="spacing" textLength="147.3799" x="734.83" y="417.1191">&#8226; When article deleted</text><text fill="#000000" font-family="Verdana" font-size="13" lengthAdjust="spacing" textLength="192.0737" x="734.83" y="432.2519">&#8226; When user (author) deleted</text></g><g class="entity" data-entity="GMN35" data-source-line="84" data-uid="ent0036" id="entity_GMN35"><path d="M976.42,392.4894 L976.42,432.755 A0,0 0 0 0 976.42,432.755 L1087.96,432.755 L1091.96,592.0494 L1095.96,432.755 L1154.3214,432.755 A0,0 0 0 0 1154.3214,432.755 L1154.3214,402.4894 L1144.3214,392.4894 L976.42,392.4894 A0,0 0 0 0 976.42,392.4894" fill="#FFFFFF" style="stroke:#000000;stroke-width:1;"/><path d="M1144.3214,392.4894 L1144.3214,402.4894 L1154.3214,402.4894 L1144.3214,392.4894" fill="#FFFFFF" style="stroke:#000000;stroke-width:1;"/><text fill="#000000" font-family="Verdana" font-size="13" lengthAdjust="spacing" textLength="108.2593" x="982.42" y="409.5563">Self-referencing:</text><text fill="#000000" font-family="Verdana" font-size="13" lengthAdjust="spacing" textLength="156.9014" x="982.42" y="424.6891">Users follow other users</text></g><g class="entity" data-entity="GMN38" data-source-line="86" data-uid="ent0039" id="entity_GMN38"><path d="M1355.63,618.7194 L1355.63,658.985 L1541.0978,658.985 L1541.0978,628.7194 L1531.0978,618.7194 L1355.63,618.7194" fill="#FFFFFF" style="stroke:#000000;stroke-width:1;"/><path d="M1531.0978,618.7194 L1531.0978,628.7194 L1541.0978,628.7194 L1531.0978,618.7194" fill="#FFFFFF" style="stroke:#000000;stroke-width:1;"/><text fill="#000000" font-family="Verdana" font-size="13" lengthAdjust="spacing" textLength="93.7993" x="1361.63" y="635.7863">Junction table:</text><text fill="#000000" font-family="Verdana" font-size="13" lengthAdjust="spacing" textLength="164.4678" x="1361.63" y="650.9191">User favorites for articles</text></g><g class="entity" data-entity="GMN41" data-source-line="88" data-uid="ent0042" id="entity_GMN41"><path d="M87.63,611.1494 L87.63,666.5478 A0,0 0 0 0 87.63,666.5478 L313.0944,666.5478 A0,0 0 0 0 313.0944,666.5478 L313.0944,621.1494 L303.0944,611.1494 L296.53,611.1494 L292.53,508.2294 L288.53,611.1494 L87.63,611.1494 A0,0 0 0 0 87.63,611.1494" fill="#FFFFFF" style="stroke:#000000;stroke-width:1;"/><path d="M303.0944,611.1494 L303.0944,621.1494 L313.0944,621.1494 L303.0944,611.1494" fill="#FFFFFF" style="stroke:#000000;stroke-width:1;"/><text fill="#000000" font-family="Verdana" font-size="13" lengthAdjust="spacing" textLength="174.4717" x="93.63" y="628.2163">Tags stored as PostgreSQL</text><text fill="#000000" font-family="Verdana" font-size="13" lengthAdjust="spacing" textLength="204.4644" x="93.63" y="643.3491">ARRAY(STRING) - denormalized</text><text fill="#000000" font-family="Verdana" font-size="13" lengthAdjust="spacing" textLength="105.4917" x="93.63" y="658.4819">for performance</text></g><g class="entity" data-entity="GMN44" data-source-line="90" data-uid="ent0045" id="entity_GMN44"><path d="M347.86,603.5794 L347.86,674.1106 A0,0 0 0 0 347.86,674.1106 L594.881,674.1106 A0,0 0 0 0 594.881,674.1106 L594.881,613.5794 L584.881,603.5794 L475.37,603.5794 L471.37,508.2294 L467.37,603.5794 L347.86,603.5794 A0,0 0 0 0 347.86,603.5794" fill="#FFFFFF" style="stroke:#000000;stroke-width:1;"/><path d="M584.881,603.5794 L584.881,613.5794 L594.881,613.5794 L584.881,603.5794" fill="#FFFFFF" style="stroke:#000000;stroke-width:1;"/><text fill="#000000" font-family="Verdana" font-size="13" lengthAdjust="spacing" textLength="165.312" x="353.86" y="620.6463">&#9888;&#65039; Schema Inconsistency:</text><text fill="#000000" font-family="Verdana" font-size="13" lengthAdjust="spacing" textLength="147.3672" x="353.86" y="635.7791">created_at/updated_at</text><text fill="#000000" font-family="Verdana" font-size="13" lengthAdjust="spacing" textLength="210.4185" x="353.86" y="650.9119">defined as STRING in migrations</text><text fill="#000000" font-family="Verdana" font-size="13" lengthAdjust="spacing" textLength="226.021" x="353.86" y="666.0447">but expected as DATETIME in ORM</text></g><!--link user to article--><g class="link" data-entity-1="user" data-entity-2="article" data-source-line="68" data-uid="lnk7" id="link_user_article"><path codeLine="68" d="M573,265.5094 C573,285.0394 573,279.4894 573,298.8894" fill="none" id="user-article" style="stroke:#000000;stroke-width:1;"/><line style="stroke:#000000;stroke-width:1;" x1="569" x2="577" y1="261.5094" y2="261.5094"/><line style="stroke:#000000;stroke-width:1;" x1="569" x2="577" y1="264.5094" y2="264.5094"/><line style="stroke:#000000;stroke-width:1;" x1="573" x2="573" y1="265.5094" y2="257.5094"/><line style="stroke:#000000;stroke-width:1;" x1="573" x2="579" y1="308.8894" y2="316.8894"/><line style="stroke:#000000;stroke-width:1;" x1="573" x2="567" y1="308.8894" y2="316.8894"/><line style="stroke:#000000;stroke-width:1;" x1="573" x2="573" y1="308.8894" y2="316.8894"/><ellipse cx="573" cy="302.8894" fill="none" rx="4" ry="4" style="stroke:#000000;stroke-width:1;"/><text fill="#000000" font-family="Verdana" font-size="13" lengthAdjust="spacing" textLength="86.2646" x="444.6787" y="268.2663">authors (1:N)</text><text fill="#000000" font-family="Verdana" font-size="13" lengthAdjust="spacing" textLength="169.6221" x="403" y="283.3991">user.id &#8594; article.author_id</text></g><!--link user to comment--><g class="link" data-entity-1="user" data-entity-2="comment" data-source-line="69" data-uid="lnk8" id="link_user_comment"><path codeLine="69" d="M698.98,265.5894 C698.98,358.1694 698.98,467.7394 698.98,549.7994" fill="none" id="user-comment" style="stroke:#000000;stroke-width:1;"/><line style="stroke:#000000;stroke-width:1;" x1="694.98" x2="702.98" y1="261.5894" y2="261.5894"/><line style="stroke:#000000;stroke-width:1;" x1="694.98" x2="702.98" y1="264.5894" y2="264.5894"/><line style="stroke:#000000;stroke-width:1;" x1="698.98" x2="698.98" y1="265.5894" y2="257.5894"/><line style="stroke:#000000;stroke-width:1;" x1="698.98" x2="704.98" y1="559.7994" y2="567.7994"/><line style="stroke:#000000;stroke-width:1;" x1="698.98" x2="692.98" y1="559.7994" y2="567.7994"/><line style="stroke:#000000;stroke-width:1;" x1="698.98" x2="698.98" y1="559.7994" y2="567.7994"/><ellipse cx="698.98" cy="553.7994" fill="none" rx="4" ry="4" style="stroke:#000000;stroke-width:1;"/><text fill="#000000" font-family="Verdana" font-size="13" lengthAdjust="spacing" textLength="86.2646" x="608.1514" y="425.7663">authors (1:N)</text><text fill="#000000" font-family="Verdana" font-size="13" lengthAdjust="spacing" textLength="190.6074" x="555.98" y="440.8991">user.id &#8594; comment.author_id</text></g><!--link article to comment--><g class="link" data-entity-1="article" data-entity-2="comment" data-source-line="70" data-uid="lnk9" id="link_article_comment"><path codeLine="70" d="M613.47,516.2294 C613.47,556.2494 613.47,585.6294 613.47,585.6294 C613.47,585.6294 619.51,585.6294 650.88,585.6294" fill="none" id="article-comment" style="stroke:#000000;stroke-width:1;"/><line style="stroke:#000000;stroke-width:1;" x1="609.47" x2="617.47" y1="512.2294" y2="512.2294"/><line style="stroke:#000000;stroke-width:1;" x1="609.47" x2="617.47" y1="515.2294" y2="515.2294"/><line style="stroke:#000000;stroke-width:1;" x1="613.47" x2="613.47" y1="516.2294" y2="508.2294"/><line style="stroke:#000000;stroke-width:1;" x1="660.88" x2="668.88" y1="585.6294" y2="579.6294"/><line style="stroke:#000000;stroke-width:1;" x1="660.88" x2="668.88" y1="585.6294" y2="591.6294"/><line style="stroke:#000000;stroke-width:1;" x1="660.88" x2="668.88" y1="585.6294" y2="585.6294"/><ellipse cx="654.88" cy="585.6294" fill="none" rx="4" ry="4" style="stroke:#000000;stroke-width:1;"/><text fill="#000000" font-family="Verdana" font-size="13" lengthAdjust="spacing" textLength="59.6299" x="483.1385" y="555.6963">has (1:N)</text><text fill="#000000" font-family="Verdana" font-size="13" lengthAdjust="spacing" textLength="200.9668" x="412.47" y="570.8291">article.id &#8594; comment.article_id</text></g><!--reverse link user to apoint12--><g class="link" data-entity-1="user" data-entity-2="apoint12" data-source-line="75" data-uid="lnk16" id="link_user_apoint12"><path d="M835.74,190.6294 C987.92,190.6294 1191.37,190.6294 1191.37,190.6294 C1191.37,190.6294 1191.37,385.7394 1191.37,410.1294" fill="none" id="user-backto-apoint12" style="stroke:#000000;stroke-width:1;"/><line style="stroke:#000000;stroke-width:1;" x1="831.74" x2="831.74" y1="194.6294" y2="186.6294"/><line style="stroke:#000000;stroke-width:1;" x1="834.74" x2="834.74" y1="194.6294" y2="186.6294"/><line style="stroke:#000000;stroke-width:1;" x1="835.74" x2="827.74" y1="190.6294" y2="190.6294"/><text fill="#000000" font-family="Verdana" font-size="13" lengthAdjust="spacing" textLength="58.4429" x="1060.3" y="186.6963">following</text></g><!--link apoint12 to follower--><g class="link" data-entity-1="apoint12" data-entity-2="follower" data-source-line="75" data-uid="lnk17" id="link_apoint12_follower"><path d="M1191.37,414.8594 C1191.37,431.0594 1191.37,513.3894 1191.37,574.1494" fill="none" id="apoint12-to-follower" style="stroke:#000000;stroke-width:1;"/><line style="stroke:#000000;stroke-width:1;" x1="1191.37" x2="1197.37" y1="584.1494" y2="592.1494"/><line style="stroke:#000000;stroke-width:1;" x1="1191.37" x2="1185.37" y1="584.1494" y2="592.1494"/><line style="stroke:#000000;stroke-width:1;" x1="1191.37" x2="1191.37" y1="584.1494" y2="592.1494"/><ellipse cx="1191.37" cy="578.1494" fill="none" rx="4" ry="4" style="stroke:#000000;stroke-width:1;"/></g><!--reverse link user to apoint13--><g class="link" data-entity-1="user" data-entity-2="apoint13" data-source-line="75" data-uid="lnk18" id="link_user_apoint13"><path d="M835.76,124.6294 C1000.06,124.6294 1230.37,124.6294 1230.37,124.6294 C1230.37,124.6294 1230.37,381.9794 1230.37,410.1294" fill="none" id="user-backto-apoint13" style="stroke:#000000;stroke-width:1;"/><line style="stroke:#000000;stroke-width:1;" x1="831.76" x2="831.76" y1="128.6294" y2="120.6294"/><line style="stroke:#000000;stroke-width:1;" x1="834.76" x2="834.76" y1="128.6294" y2="120.6294"/><line style="stroke:#000000;stroke-width:1;" x1="835.76" x2="827.76" y1="124.6294" y2="124.6294"/><text fill="#000000" font-family="Verdana" font-size="13" lengthAdjust="spacing" textLength="58.4556" x="1112.81" y="120.6963">followers</text></g><!--link apoint13 to follower--><g class="link" data-entity-1="apoint13" data-entity-2="follower" data-source-line="75" data-uid="lnk19" id="link_apoint13_follower"><path d="M1230.37,414.8594 C1230.37,431.0594 1230.37,513.3894 1230.37,574.1494" fill="none" id="apoint13-to-follower" style="stroke:#000000;stroke-width:1;"/><line style="stroke:#000000;stroke-width:1;" x1="1230.37" x2="1236.37" y1="584.1494" y2="592.1494"/><line style="stroke:#000000;stroke-width:1;" x1="1230.37" x2="1224.37" y1="584.1494" y2="592.1494"/><line style="stroke:#000000;stroke-width:1;" x1="1230.37" x2="1230.37" y1="584.1494" y2="592.1494"/><ellipse cx="1230.37" cy="578.1494" fill="none" rx="4" ry="4" style="stroke:#000000;stroke-width:1;"/></g><!--link apoint12 to apoint13--><g class="link" data-entity-1="apoint12" data-entity-2="apoint13" data-source-line="75" data-uid="lnk20" id="link_apoint12_apoint13"><path d="M1193.46,412.6294 C1200.17,412.6294 1221.08,412.6294 1228.06,412.6294" fill="none" id="apoint12-apoint13" style="stroke:#000000;stroke-width:1;stroke-dasharray:7.0,7.0;"/><text fill="#000000" font-family="Verdana" font-size="13" lengthAdjust="spacing" textLength="195.3491" x="1213.0867" y="393.6963">"user.id &#8596; follower.follower_id</text><text fill="#000000" font-family="Verdana" font-size="13" lengthAdjust="spacing" textLength="198.0024" x="1211.76" y="408.8291">user.id &#8596; follower.followee_id"</text></g><!--reverse link user to apoint23--><g class="link" data-entity-1="user" data-entity-2="apoint23" data-source-line="79" data-uid="lnk27" id="link_user_apoint23"><path d="M515,157.6294 C335.67,157.6294 70,157.6294 70,157.6294 C70,157.6294 70,638.6294 70,638.6294 C70,638.6294 58.02,638.6294 52.77,638.6294" fill="none" id="user-backto-apoint23" style="stroke:#000000;stroke-width:1;"/><line style="stroke:#000000;stroke-width:1;" x1="519" x2="519" y1="153.6294" y2="161.6294"/><line style="stroke:#000000;stroke-width:1;" x1="516" x2="516" y1="153.6294" y2="161.6294"/><line style="stroke:#000000;stroke-width:1;" x1="515" x2="523" y1="157.6294" y2="157.6294"/><text fill="#000000" font-family="Verdana" font-size="13" lengthAdjust="spacing" textLength="57.0146" x="12" y="176.3063">favorites</text></g><!--link apoint23 to favorite--><g class="link" data-entity-1="apoint23" data-entity-2="favorite" data-source-line="79" data-uid="lnk28" id="link_apoint23_favorite"><path d="M50.37,641.0994 C50.37,661.6794 50.37,816.6294 50.37,816.6294 C50.37,816.6294 316.91,816.6294 488.08,816.6294" fill="none" id="apoint23-to-favorite" style="stroke:#000000;stroke-width:1;"/><line style="stroke:#000000;stroke-width:1;" x1="498.08" x2="506.08" y1="816.6294" y2="810.6294"/><line style="stroke:#000000;stroke-width:1;" x1="498.08" x2="506.08" y1="816.6294" y2="822.6294"/><line style="stroke:#000000;stroke-width:1;" x1="498.08" x2="506.08" y1="816.6294" y2="816.6294"/><ellipse cx="492.08" cy="816.6294" fill="none" rx="4" ry="4" style="stroke:#000000;stroke-width:1;"/></g><!--reverse link article to apoint24--><g class="link" data-entity-1="article" data-entity-2="apoint24" data-source-line="79" data-uid="lnk29" id="link_article_apoint24"><path d="M604.17,516.1394 C604.17,577.8194 604.17,638.6294 604.17,638.6294 C604.17,638.6294 623.51,638.6294 630.15,638.6294" fill="none" id="article-backto-apoint24" style="stroke:#000000;stroke-width:1;"/><line style="stroke:#000000;stroke-width:1;" x1="600.17" x2="608.17" y1="512.1394" y2="512.1394"/><line style="stroke:#000000;stroke-width:1;" x1="600.17" x2="608.17" y1="515.1394" y2="515.1394"/><line style="stroke:#000000;stroke-width:1;" x1="604.17" x2="604.17" y1="516.1394" y2="508.1394"/><text fill="#000000" font-family="Verdana" font-size="13" lengthAdjust="spacing" textLength="80.939" x="523.17" y="582.4463">favorited_by</text></g><!--link apoint24 to favorite--><g class="link" data-entity-1="apoint24" data-entity-2="favorite" data-source-line="79" data-uid="lnk30" id="link_apoint24_favorite"><path d="M632.37,641.0894 C632.37,654.1994 632.37,703.9894 632.37,751.2594" fill="none" id="apoint24-to-favorite" style="stroke:#000000;stroke-width:1;"/><line style="stroke:#000000;stroke-width:1;" x1="632.37" x2="638.37" y1="761.2594" y2="769.2594"/><line style="stroke:#000000;stroke-width:1;" x1="632.37" x2="626.37" y1="761.2594" y2="769.2594"/><line style="stroke:#000000;stroke-width:1;" x1="632.37" x2="632.37" y1="761.2594" y2="769.2594"/><ellipse cx="632.37" cy="755.2594" fill="none" rx="4" ry="4" style="stroke:#000000;stroke-width:1;"/></g><!--link apoint23 to apoint24--><g class="link" data-entity-1="apoint23" data-entity-2="apoint24" data-source-line="79" data-uid="lnk31" id="link_apoint23_apoint24"><path d="M50.37,636.7294 C50.37,622.1994 50.37,537.6294 50.37,537.6294 C50.37,537.6294 632.37,537.6294 632.37,537.6294 C632.37,537.6294 632.37,622.1994 632.37,636.7294" fill="none" id="apoint23-apoint24" style="stroke:#000000;stroke-width:1;stroke-dasharray:7.0,7.0;"/><text fill="#000000" font-family="Verdana" font-size="13" lengthAdjust="spacing" textLength="170.5806" x="157.7924" y="550.6963">"user.id &#8596; favorite.user_id</text><text fill="#000000" font-family="Verdana" font-size="13" lengthAdjust="spacing" textLength="195.4253" x="145.37" y="565.8291">article.id &#8596; favorite.article_id"</text></g><!--link GMN38 to favorite--><g class="link" data-entity-1="GMN38" data-entity-2="favorite" data-source-line="86" data-uid="lnk40" id="link_GMN38_favorite"><path d="M1448.37,659.2394 C1448.37,705.9394 1448.37,816.6294 1448.37,816.6294 C1448.37,816.6294 987.57,816.6294 758.52,816.6294" fill="none" id="GMN38-favorite" style="stroke:#000000;stroke-width:1;stroke-dasharray:7.0,7.0;"/></g><!--SRC=[fLRDRXit4BxlKqnrgIHOIjEZ40HmR3bL8Ykk9CCjgaAWTaSI4Iwv8RcrbQH0JxqMA7hggSXJv7dy0ds5pdAvFv9isK5zaBdaDyDllXaE-PLTOuoG2CPbOBaL26VCsEEB0OoHYIkbHGGTE6MMBPX1c8I4Pq7mDKpiHd2vWgNIi41hKOD65h455znk0lEMouHf5WEXq6uI1ANjMjKM4XQ-PIlC727PXfR9bS0Q81JC6FWG0Fsz8F1AgrH69qhGbbThRZ5VKJf2dS- -40HpisTAsWb_Z_3q6_Vz7N53NSr-6_oQHN5ESGDAYfoZ2TnW0utKe6u0Cv0DF85scqVjDlHWC9hsN_R7yEpPnUldpw79Kgku33NfA6tBOJiTRvBPInQZCvnCnuFHIxAxT7QZDrCONGw7BOybNRbu373Dp1gZUKBYN5FiTPCTx88hMflsVvX2Cy8bIuNjGQEHB_AOnA-PxW5y50CPuGsQdlku_UqJy9jv5jUy20wQgUJlKcpj8Ln8rJ8fNYZCjEMXG2Uo7n_MULjN8zBLOwHo5Nr0e7OxGXDgdbYkv47SGaKR1yZLtDk8hORSM8Su7e-FVspcZberNN_wkK1JoQoLdky5UdP745HOp5AwcItPFJazdlQdW_C-D6___kVVpty0rP-IXWYK9PWcqPUQrT8JgZYhPfSUF_wIz9HYtQUcJ_dZ5FZVUa5JfaAmXS1xjQb3N6DubSemAmgmsQHnRIvcSjEngfFzfuObM0OmQvvKdMEfX53NldiK7wLqnSJy3WsFpWePInmUndcvJrISA4FT42vUzw1Ps-C8QexkEdxp9Vj5QJBDwVgFaguxmmzGlJUJ3pFrxe-Wyk757zUrXMjkrv1ebP2I8TCHbynTCQuvV_pOwQWFPG-XxfKNYu7cqzweDPCPgiiZkFtzpmBLBUkfiUMagFJ3JZogxgJOVTyFzUh2Hx7vhfio-4P-8TrROtMgPMdrgfepZGSWT5qt0YTxMHcw1TqkxCtryZimv_fNkT2j5LTTb7s4ZsUBJr5U6Hy_DdlQtOMAvejDHTnFviIzTNrwbxjVwFfosqb43R2JYHDcGdepG8G2YOzKH3V8Vi6g1DIobkO2UjeVzgVztancb-3L6cLPbxcJgBRYf6dcHTGgreEj3MePdA1OTZGkKQCCAO-qnoKvA7eCA7h7QUVJxFYezDnkQTv32SXRdETRE5aeQrMS-QaEs9Ij31YhD4PPrxXGnguqJhuVpkJspTUXgAJICPtMzrdecNywmyjiIePuO0j_FUMFJNg0bBTKk27QLOT_KdNo6RrIblJIT9nyJwUdNSnNEZz2Cxb8BU1DGW_D75LUXuHxCpuF_WC0]--></g></svg>