<svg xmlns="http://www.w3.org/2000/svg" xmlns:xlink="http://www.w3.org/1999/xlink" contentStyleType="text/css" data-diagram-type="DESCRIPTION" height="941px" preserveAspectRatio="none" style="width:1117px;height:941px;background:#FFFFFF;" version="1.1" viewBox="0 0 1117 941" width="1117px" zoomAndPan="magnify"><title>Data Flow Diagram - Request Processing Pipeline</title><defs/><g><g class="title" data-source-line="9"><text fill="#000000" font-family="sans-serif" font-size="14" font-weight="bold" lengthAdjust="spacing" textLength="390.4551" x="356.7075" y="22.9951">Data Flow Diagram - Request Processing Pipeline</text></g><!--cluster client--><g class="cluster" data-entity="client" data-source-line="11" data-uid="ent0002" id="cluster_client"><rect fill="#E3F2FD" height="93" rx="2.5" ry="2.5" style="stroke:#181818;stroke-width:1;" width="129.01" x="357.66" y="230.3969"/><text fill="#000000" font-family="sans-serif" font-size="11" font-weight="bold" lengthAdjust="spacing" textLength="74.481" x="384.9245" y="242.6073">Client Layer</text></g><!--cluster api--><g class="cluster" data-entity="api" data-source-line="15" data-uid="ent0004" id="cluster_api"><rect fill="#E8F5E8" height="178" rx="2.5" ry="2.5" style="stroke:#181818;stroke-width:1;" width="774.62" x="337.25" y="347.3969"/><text fill="#000000" font-family="sans-serif" font-size="11" font-weight="bold" lengthAdjust="spacing" textLength="58.9854" x="695.0673" y="359.6073">API Layer</text></g><!--cluster service--><g class="cluster" data-entity="service" data-source-line="21" data-uid="ent0008" id="cluster_service"><rect fill="#FFF3E0" height="97" rx="2.5" ry="2.5" style="stroke:#181818;stroke-width:1;" width="511.06" x="7" y="549.3969"/><text fill="#000000" font-family="sans-serif" font-size="11" font-weight="bold" lengthAdjust="spacing" textLength="84.0469" x="220.5066" y="561.6073">Service Layer</text></g><!--cluster domain--><g class="cluster" data-entity="domain" data-source-line="26" data-uid="ent0011" id="cluster_domain"><rect fill="#E0F2F1" height="111" rx="2.5" ry="2.5" style="stroke:#181818;stroke-width:1;" width="440.77" x="659.49" y="610.3969"/><text fill="#000000" font-family="sans-serif" font-size="11" font-weight="bold" lengthAdjust="spacing" textLength="85.4917" x="837.1292" y="622.6073">Domain Layer</text></g><!--cluster infra--><g class="cluster" data-entity="infra" data-source-line="31" data-uid="ent0014" id="cluster_infra"><rect fill="#FCE4EC" height="152" rx="2.5" ry="2.5" style="stroke:#181818;stroke-width:1;" width="503.2" x="329.93" y="778.3969"/><text fill="#000000" font-family="sans-serif" font-size="11" font-weight="bold" lengthAdjust="spacing" textLength="125.4312" x="518.8144" y="790.6073">Infrastructure Layer</text></g><!--cluster db--><g class="cluster" data-entity="db" data-source-line="36" data-uid="ent0017" id="cluster_db"><rect fill="#F3E5F5" height="93" rx="2.5" ry="2.5" style="stroke:#181818;stroke-width:1;" width="156.84" x="954.13" y="842.3969"/><text fill="#000000" font-family="sans-serif" font-size="11" font-weight="bold" lengthAdjust="spacing" textLength="96.8569" x="984.1215" y="854.6073">Database Layer</text></g><!--entity user--><g class="entity" data-entity="user" data-source-line="12" data-uid="ent0003" id="entity_user"><rect fill="#F1F1F1" height="45.6094" rx="2.5" ry="2.5" style="stroke:#181818;stroke-width:0.5;" width="97.0161" x="373.66" y="261.5969"/><text fill="#000000" font-family="sans-serif" font-size="11" lengthAdjust="spacing" textLength="25.0723" x="383.66" y="281.8073">User</text><text fill="#000000" font-family="sans-serif" font-size="11" lengthAdjust="spacing" textLength="77.0161" x="383.66" y="294.612">HTTP Request</text></g><!--entity router--><g class="entity" data-entity="router" data-source-line="16" data-uid="ent0005" id="entity_router"><rect fill="#F1F1F1" height="45.6094" rx="2.5" ry="2.5" style="stroke:#181818;stroke-width:0.5;" width="109.1118" x="686.87" y="378.5969"/><text fill="#000000" font-family="sans-serif" font-size="11" lengthAdjust="spacing" textLength="71.8384" x="696.87" y="398.8073">1. API Router</text><text fill="#000000" font-family="sans-serif" font-size="11" lengthAdjust="spacing" textLength="89.1118" x="696.87" y="411.612">Receive request</text></g><!--entity auth--><g class="entity" data-entity="auth" data-source-line="17" data-uid="ent0006" id="entity_auth"><rect fill="#F1F1F1" height="45.6094" rx="2.5" ry="2.5" style="stroke:#181818;stroke-width:0.5;" width="126.6323" x="969.23" y="431.5969"/><text fill="#000000" font-family="sans-serif" font-size="11" lengthAdjust="spacing" textLength="106.6323" x="979.23" y="451.8073">2. Auth Middleware</text><text fill="#000000" font-family="sans-serif" font-size="11" lengthAdjust="spacing" textLength="69.5181" x="979.23" y="464.612">Validate JWT</text></g><!--entity validation--><g class="entity" data-entity="validation" data-source-line="18" data-uid="ent0007" id="entity_validation"><rect fill="#F1F1F1" height="45.6094" rx="2.5" ry="2.5" style="stroke:#181818;stroke-width:0.5;" width="137.8364" x="353.25" y="451.5969"/><text fill="#000000" font-family="sans-serif" font-size="11" lengthAdjust="spacing" textLength="117.8364" x="363.25" y="471.8073">3. Request Validation</text><text fill="#000000" font-family="sans-serif" font-size="11" lengthAdjust="spacing" textLength="80.3086" x="363.25" y="484.612">Check schema</text></g><!--entity app_service--><g class="entity" data-entity="app_service" data-source-line="22" data-uid="ent0009" id="entity_app_service"><rect fill="#F1F1F1" height="45.6094" rx="2.5" ry="2.5" style="stroke:#181818;stroke-width:0.5;" width="139.6035" x="23" y="580.5969"/><text fill="#000000" font-family="sans-serif" font-size="11" lengthAdjust="spacing" textLength="119.6035" x="33" y="600.8073">4. Application Service</text><text fill="#000000" font-family="sans-serif" font-size="11" lengthAdjust="spacing" textLength="117.106" x="33" y="613.612">Orchestrate use case</text></g><!--entity transaction--><g class="entity" data-entity="transaction" data-source-line="23" data-uid="ent0010" id="entity_transaction"><rect fill="#F1F1F1" height="45.6094" rx="2.5" ry="2.5" style="stroke:#181818;stroke-width:0.5;" width="159.7881" x="342.27" y="580.5969"/><text fill="#000000" font-family="sans-serif" font-size="11" lengthAdjust="spacing" textLength="130.249" x="352.27" y="600.8073">5. Transaction Manager</text><text fill="#000000" font-family="sans-serif" font-size="11" lengthAdjust="spacing" textLength="139.7881" x="352.27" y="613.612">@transactional decorator</text></g><!--entity domain_model--><g class="entity" data-entity="domain_model" data-source-line="27" data-uid="ent0012" id="entity_domain_model"><rect fill="#F1F1F1" height="45.6094" rx="2.5" ry="2.5" style="stroke:#181818;stroke-width:0.5;" width="131.8638" x="675.49" y="653.5969"/><text fill="#000000" font-family="sans-serif" font-size="11" lengthAdjust="spacing" textLength="93.1992" x="685.49" y="673.8073">6. Domain Model</text><text fill="#000000" font-family="sans-serif" font-size="11" lengthAdjust="spacing" textLength="111.8638" x="685.49" y="686.612">Apply business logic</text></g><!--entity events--><g class="entity" data-entity="events" data-source-line="28" data-uid="ent0013" id="entity_events"><rect fill="#F1F1F1" height="45.6094" rx="2.5" ry="2.5" style="stroke:#181818;stroke-width:0.5;" width="103.4238" x="980.84" y="644.5969"/><text fill="#000000" font-family="sans-serif" font-size="11" lengthAdjust="spacing" textLength="83.4238" x="990.84" y="664.8073">Domain Events</text><text fill="#000000" font-family="sans-serif" font-size="11" lengthAdjust="spacing" textLength="53.1631" x="990.84" y="677.612">(optional)</text></g><!--entity repository--><g class="entity" data-entity="repository" data-source-line="32" data-uid="ent0015" id="entity_repository"><rect fill="#F1F1F1" height="45.6094" rx="2.5" ry="2.5" style="stroke:#181818;stroke-width:0.5;" width="152.4727" x="345.93" y="809.5969"/><text fill="#000000" font-family="sans-serif" font-size="11" lengthAdjust="spacing" textLength="72.9771" x="355.93" y="829.8073">7. Repository</text><text fill="#000000" font-family="sans-serif" font-size="11" lengthAdjust="spacing" textLength="132.4727" x="355.93" y="842.612">Data access abstraction</text></g><!--entity orm--><g class="entity" data-entity="orm" data-source-line="33" data-uid="ent0016" id="entity_orm"><rect fill="#F1F1F1" height="45.6094" rx="2.5" ry="2.5" style="stroke:#181818;stroke-width:0.5;" width="151.4038" x="665.72" y="837.5969"/><text fill="#000000" font-family="sans-serif" font-size="11" lengthAdjust="spacing" textLength="85.25" x="675.72" y="857.8073">8. ORM Session</text><text fill="#000000" font-family="sans-serif" font-size="11" lengthAdjust="spacing" textLength="131.4038" x="675.72" y="870.612">SQLAlchemy operations</text></g><!--entity database--><g class="entity" data-entity="database" data-source-line="37" data-uid="ent0018" id="entity_database"><rect fill="#F1F1F1" height="45.6094" rx="2.5" ry="2.5" style="stroke:#181818;stroke-width:0.5;" width="124.8438" x="970.13" y="873.5969"/><text fill="#000000" font-family="sans-serif" font-size="11" lengthAdjust="spacing" textLength="77.4404" x="980.13" y="893.8073">9. PostgreSQL</text><text fill="#000000" font-family="sans-serif" font-size="11" lengthAdjust="spacing" textLength="104.8438" x="980.13" y="906.612">Execute SQL query</text></g><g class="entity" data-entity="GMN36" data-source-line="62" data-uid="ent0037" id="entity_GMN36"><path d="M337.6,146.2969 L337.6,214.5 L506.7201,214.5 L506.7201,156.2969 L496.7201,146.2969 L337.6,146.2969" fill="#FEFFDD" style="stroke:#181818;stroke-width:0.5;"/><path d="M496.7201,146.2969 L496.7201,156.2969 L506.7201,156.2969 L496.7201,146.2969" fill="#FEFFDD" style="stroke:#181818;stroke-width:1;"/><text fill="#000000" font-family="sans-serif" font-size="10" font-weight="bold" lengthAdjust="spacing" textLength="143.5352" x="343.6" y="160.5791">Transaction Management</text><text fill="#000000" font-family="sans-serif" font-size="10" lengthAdjust="spacing" textLength="148.1201" x="343.6" y="172.2197">&#8226; Auto-begin on service entry</text><text fill="#000000" font-family="sans-serif" font-size="10" lengthAdjust="spacing" textLength="131.6309" x="343.6" y="183.8604">&#8226; Auto-commit on success</text><text fill="#000000" font-family="sans-serif" font-size="10" lengthAdjust="spacing" textLength="143.4912" x="343.6" y="195.501">&#8226; Auto-rollback on exception</text><text fill="#000000" font-family="sans-serif" font-size="10" lengthAdjust="spacing" textLength="89.9902" x="343.6" y="207.1416">&#8226; Session cleanup</text></g><g class="entity" data-entity="GMN39" data-source-line="70" data-uid="ent0040" id="entity_GMN39"><path d="M970.9,263.2969 L970.9,331.5 L1094.1949,331.5 L1094.1949,273.2969 L1084.1949,263.2969 L970.9,263.2969" fill="#FEFFDD" style="stroke:#181818;stroke-width:0.5;"/><path d="M1084.1949,263.2969 L1084.1949,273.2969 L1094.1949,273.2969 L1084.1949,263.2969" fill="#FEFFDD" style="stroke:#181818;stroke-width:1;"/><text fill="#000000" font-family="sans-serif" font-size="10" font-weight="bold" lengthAdjust="spacing" textLength="94.751" x="976.9" y="277.5791">Event Publishing</text><text fill="#000000" font-family="sans-serif" font-size="10" lengthAdjust="spacing" textLength="92.9639" x="976.9" y="289.2197">&#8226; User registration</text><text fill="#000000" font-family="sans-serif" font-size="10" lengthAdjust="spacing" textLength="95.9375" x="976.9" y="300.8604">&#8226; Article publishing</text><text fill="#000000" font-family="sans-serif" font-size="10" lengthAdjust="spacing" textLength="102.2949" x="976.9" y="312.501">&#8226; Comment creation</text><text fill="#000000" font-family="sans-serif" font-size="10" lengthAdjust="spacing" textLength="86.3379" x="976.9" y="324.1416">&#8226; Follow/unfollow</text></g><g class="entity" data-entity="GMN42" data-source-line="78" data-uid="ent0043" id="entity_GMN42"><path d="M358.47,43.2969 L358.47,111.5 L485.8518,111.5 L485.8518,53.2969 L475.8518,43.2969 L358.47,43.2969" fill="#FEFFDD" style="stroke:#181818;stroke-width:0.5;"/><path d="M475.8518,43.2969 L475.8518,53.2969 L485.8518,53.2969 L475.8518,43.2969" fill="#FEFFDD" style="stroke:#181818;stroke-width:1;"/><text fill="#000000" font-family="sans-serif" font-size="10" font-weight="bold" lengthAdjust="spacing" textLength="106.3818" x="364.47" y="57.5791">Validation Pipeline</text><text fill="#000000" font-family="sans-serif" font-size="10" lengthAdjust="spacing" textLength="101.6943" x="364.47" y="69.2197">&#8226; Schema validation</text><text fill="#000000" font-family="sans-serif" font-size="10" lengthAdjust="spacing" textLength="80.9424" x="364.47" y="80.8604">&#8226; Business rules</text><text fill="#000000" font-family="sans-serif" font-size="10" lengthAdjust="spacing" textLength="67.6318" x="364.47" y="92.501">&#8226; Type safety</text><text fill="#000000" font-family="sans-serif" font-size="10" lengthAdjust="spacing" textLength="80.4199" x="364.47" y="104.1416">&#8226; Error handling</text></g><!--link user to router--><g class="link" data-entity-1="user" data-entity-2="router" data-source-line="41" data-uid="lnk19" id="link_user_router"><path d="M470.8,289.0569 C514.98,294.6269 581.82,306.2569 635.72,329.3969 C664.31,341.6669 688.4725,358.5341 708.6325,374.5541" fill="none" id="user-to-router" style="stroke:#181818;stroke-width:1;"/><polygon fill="#181818" points="713.33,378.2869,708.7723,369.556,709.4154,375.1762,703.7953,375.8193,713.33,378.2869" style="stroke:#181818;stroke-width:1;"/><text fill="#000000" font-family="sans-serif" font-size="12" lengthAdjust="spacing" textLength="84.0176" x="544.22" y="283.5455">HTTP Request</text><text fill="#000000" font-family="sans-serif" font-size="12" lengthAdjust="spacing" textLength="72.1582" x="550.1497" y="297.5143">JSON/HTTPS</text></g><!--link router to user--><g class="link" data-entity-1="router" data-entity-2="user" data-source-line="59" data-uid="lnk35" id="link_router_user"><path d="M686.72,393.0769 C644.82,385.5069 585.72,372.4069 536.72,352.3969 C507.79,340.5769 482.5381,325.4614 460.5481,310.7614" fill="none" id="router-to-user" style="stroke:#181818;stroke-width:1;"/><polygon fill="#181818" points="455.56,307.4269,460.8192,315.754,459.7168,310.2056,465.2652,309.1032,455.56,307.4269" style="stroke:#181818;stroke-width:1;"/><text fill="#000000" font-family="sans-serif" font-size="12" lengthAdjust="spacing" textLength="92.9063" x="540.22" y="349.5355">HTTP Response</text></g><!--link router to auth--><g class="link" data-entity-1="router" data-entity-2="auth" data-source-line="42" data-uid="lnk20" id="link_router_auth"><path d="M796.47,411.3069 C845.42,420.2769 911.6383,432.415 963.0783,441.845" fill="none" id="router-to-auth" style="stroke:#181818;stroke-width:1;"/><polygon fill="#181818" points="968.98,442.9269,960.8488,437.3696,964.062,442.0253,959.4063,445.2385,968.98,442.9269" style="stroke:#181818;stroke-width:1;"/><text fill="#000000" font-family="sans-serif" font-size="12" lengthAdjust="spacing" textLength="77.1914" x="855.13" y="418.7255">Authenticate</text></g><!--link auth to validation--><g class="link" data-entity-1="auth" data-entity-2="validation" data-source-line="43" data-uid="lnk21" id="link_auth_validation"><path d="M969.06,456.4469 C854.23,460.2269 616.5168,468.0399 497.4768,471.9499" fill="none" id="auth-to-validation" style="stroke:#181818;stroke-width:1;"/><polygon fill="#181818" points="491.48,472.1469,500.6065,475.8493,496.4773,471.9827,500.3438,467.8536,491.48,472.1469" style="stroke:#181818;stroke-width:1;"/><text fill="#000000" font-family="sans-serif" font-size="12" lengthAdjust="spacing" textLength="49.2891" x="716.93" y="457.9455">Validate</text></g><!--link validation to app_service--><g class="link" data-entity-1="validation" data-entity-2="app_service" data-source-line="44" data-uid="lnk22" id="link_validation_app_service"><path d="M352.94,477.3769 C305.88,481.6669 242.96,491.9569 192.6,516.3969 C160.94,531.7669 135.6576,555.6886 117.3176,575.8486" fill="none" id="validation-to-app_service" style="stroke:#181818;stroke-width:1;"/><polygon fill="#181818" points="113.28,580.2869,122.2952,576.3212,116.6446,576.5883,116.3775,570.9378,113.28,580.2869" style="stroke:#181818;stroke-width:1;"/><text fill="#000000" font-family="sans-serif" font-size="12" lengthAdjust="spacing" textLength="45.9961" x="227.6" y="480.1855">Process</text></g><!--link app_service to validation--><g class="link" data-entity-1="app_service" data-entity-2="validation" data-source-line="57" data-uid="lnk33" id="link_app_service_validation"><path d="M163.1,586.9669 C205.65,575.8269 260.78,559.4869 307.6,539.3969 C334.74,527.7469 358.4963,514.3216 380.3363,500.8216" fill="none" id="app_service-to-validation" style="stroke:#181818;stroke-width:1;"/><polygon fill="#181818" points="385.44,497.6669,375.6813,498.9965,381.1869,500.2958,379.8876,505.8015,385.44,497.6669" style="stroke:#181818;stroke-width:1;"/><text fill="#000000" font-family="sans-serif" font-size="12" lengthAdjust="spacing" textLength="113.4844" x="193.6" y="536.5355">Response Mapping</text></g><!--link app_service to transaction--><g class="link" data-entity-1="app_service" data-entity-2="transaction" data-source-line="45" data-uid="lnk23" id="link_app_service_transaction"><path d="M162.83,603.3969 C215.16,603.3969 281.17,603.3969 335.87,603.3969" fill="none" id="app_service-to-transaction" style="stroke:#181818;stroke-width:1;"/><polygon fill="#181818" points="341.87,603.3969,332.87,599.3969,336.87,603.3969,332.87,607.3969,341.87,603.3969" style="stroke:#181818;stroke-width:1;"/><text fill="#000000" font-family="sans-serif" font-size="12" lengthAdjust="spacing" textLength="108.3984" x="196.1" y="600.5355">Begin Transaction</text></g><!--link transaction to domain_model--><g class="link" data-entity-1="transaction" data-entity-2="domain_model" data-source-line="46" data-uid="lnk24" id="link_transaction_domain_model"><path d="M502.51,620.4369 C542.52,629.1469 591.75,640.0769 635.72,650.3969 C648.49,653.3969 656.2739,655.2627 669.3139,658.4727" fill="none" id="transaction-to-domain_model" style="stroke:#181818;stroke-width:1;"/><polygon fill="#181818" points="675.14,659.9069,667.357,653.8716,670.2849,658.7117,665.4448,661.6397,675.14,659.9069" style="stroke:#181818;stroke-width:1;"/><text fill="#000000" font-family="sans-serif" font-size="12" lengthAdjust="spacing" textLength="88.3066" x="542.22" y="625.1055">Business Logic</text></g><!--link domain_model to events--><g class="link" data-entity-1="domain_model" data-entity-2="events" data-source-line="47" data-uid="lnk25" id="link_domain_model_events"><path d="M807.67,674.3669 C859.97,672.7369 926.3229,670.6737 974.4629,669.1737" fill="none" id="domain_model-to-events" style="stroke:#181818;stroke-width:1;"/><polygon fill="#181818" points="980.46,668.9869,971.3398,665.2691,975.4624,669.1426,971.5889,673.2652,980.46,668.9869" style="stroke:#181818;stroke-width:1;"/><text fill="#000000" font-family="sans-serif" font-size="12" lengthAdjust="spacing" textLength="87.4277" x="850.13" y="653.4455">Publish Events</text><text fill="#000000" font-family="sans-serif" font-size="12" lengthAdjust="spacing" textLength="82.2773" x="852.7052" y="667.4143">(if applicable)</text></g><!--link domain_model to repository--><g class="link" data-entity-1="domain_model" data-entity-2="repository" data-source-line="48" data-uid="lnk26" id="link_domain_model_repository"><path d="M721.1,699.4869 C701.66,721.2969 669.76,753.4269 635.72,772.3969 C593.36,796.0169 546.8261,809.6866 504.6561,818.7466" fill="none" id="domain_model-to-repository" style="stroke:#181818;stroke-width:1;"/><polygon fill="#181818" points="498.79,820.0069,508.4294,822.0272,503.6785,818.9566,506.749,814.2056,498.79,820.0069" style="stroke:#181818;stroke-width:1;"/><text fill="#000000" font-family="sans-serif" font-size="12" lengthAdjust="spacing" textLength="73.7578" x="549.72" y="769.5355">Data Access</text></g><!--link repository to domain_model--><g class="link" data-entity-1="repository" data-entity-2="domain_model" data-source-line="55" data-uid="lnk31" id="link_repository_domain_model"><path d="M451.72,809.4069 C473.93,792.3169 506.02,769.3169 536.72,753.3969 C578.29,731.8469 591.92,733.9369 635.72,717.3969 C650.7,711.7469 661.2326,707.6934 676.2326,701.8234" fill="none" id="repository-to-domain_model" style="stroke:#181818;stroke-width:1;"/><polygon fill="#181818" points="681.82,699.6369,671.9812,699.1917,677.1638,701.459,674.8966,706.6416,681.82,699.6369" style="stroke:#181818;stroke-width:1;"/><text fill="#000000" font-family="sans-serif" font-size="12" lengthAdjust="spacing" textLength="92.6602" x="540.22" y="714.5355">Domain Models</text></g><!--link repository to orm--><g class="link" data-entity-1="repository" data-entity-2="orm" data-source-line="49" data-uid="lnk27" id="link_repository_orm"><path d="M464.63,855.6269 C485.56,866.0369 511.74,877.1369 536.72,882.3969 C578.84,891.2569 620.7495,887.9149 659.4695,880.7749" fill="none" id="repository-to-orm" style="stroke:#181818;stroke-width:1;"/><polygon fill="#181818" points="665.37,879.6869,655.7938,877.3853,660.4529,880.5936,657.2446,885.2526,665.37,879.6869" style="stroke:#181818;stroke-width:1;"/><text fill="#000000" font-family="sans-serif" font-size="12" lengthAdjust="spacing" textLength="97.9219" x="537.72" y="879.5355">ORM Operations</text></g><!--link orm to repository--><g class="link" data-entity-1="orm" data-entity-2="repository" data-source-line="54" data-uid="lnk30" id="link_orm_repository"><path d="M665.42,853.7769 C615.13,849.3369 555.1267,844.0446 504.7267,839.5946" fill="none" id="orm-to-repository" style="stroke:#181818;stroke-width:1;"/><polygon fill="#181818" points="498.75,839.0669,507.3633,843.8429,503.7306,839.5066,508.0669,835.8739,498.75,839.0669" style="stroke:#181818;stroke-width:1;"/><text fill="#000000" font-family="sans-serif" font-size="12" lengthAdjust="spacing" textLength="96.6563" x="538.22" y="840.2055">Mapped Entities</text></g><!--link orm to database--><g class="link" data-entity-1="orm" data-entity-2="database" data-source-line="50" data-uid="lnk28" id="link_orm_database"><path d="M817.26,869.7169 C864.61,875.6069 919.126,882.3951 963.756,887.9551" fill="none" id="orm-to-database" style="stroke:#181818;stroke-width:1;"/><polygon fill="#181818" points="969.71,888.6969,961.2735,883.6149,964.7484,888.0788,960.2845,891.5536,969.71,888.6969" style="stroke:#181818;stroke-width:1;"/><text fill="#000000" font-family="sans-serif" font-size="12" lengthAdjust="spacing" textLength="64.0313" x="861.63" y="871.2555">SQL Query</text></g><!--link database to orm--><g class="link" data-entity-1="database" data-entity-2="orm" data-source-line="53" data-uid="lnk29" id="link_database_orm"><path d="M969.73,908.2269 C934.12,913.0369 888.71,915.7269 849.13,907.3969 C826.74,902.6869 808.7194,895.614 789.5494,886.234" fill="none" id="database-to-orm" style="stroke:#181818;stroke-width:1;"/><polygon fill="#181818" points="784.16,883.5969,790.4861,891.1454,788.6512,885.7944,794.0022,883.9595,784.16,883.5969" style="stroke:#181818;stroke-width:1;"/><text fill="#000000" font-family="sans-serif" font-size="12" lengthAdjust="spacing" textLength="61.1367" x="863.13" y="904.5355">Result Set</text></g><!--link domain_model to app_service--><g class="link" data-entity-1="domain_model" data-entity-2="app_service" data-source-line="56" data-uid="lnk32" id="link_domain_model_app_service"><path d="M675.19,677.4769 C592.56,677.9669 445.97,675.8469 321.93,658.3969 C267.87,650.7869 213.6869,637.6616 168.8069,625.3716" fill="none" id="domain_model-to-app_service" style="stroke:#181818;stroke-width:1;"/><polygon fill="#181818" points="163.02,623.7869,170.6439,630.0219,167.8425,625.1075,172.7569,622.306,163.02,623.7869" style="stroke:#181818;stroke-width:1;"/><text fill="#000000" font-family="sans-serif" font-size="12" lengthAdjust="spacing" textLength="102.0645" x="371.16" y="655.5355">Business Objects</text></g><!--link validation to router--><g class="link" data-entity-1="validation" data-entity-2="router" data-source-line="58" data-uid="lnk34" id="link_validation_router"><path d="M491.22,458.7369 C549.58,445.3069 626.6828,427.5725 680.5628,415.1725" fill="none" id="validation-to-router" style="stroke:#181818;stroke-width:1;"/><polygon fill="#181818" points="686.41,413.8269,676.7422,411.9473,681.5374,414.9483,678.5364,419.7435,686.41,413.8269" style="stroke:#181818;stroke-width:1;"/><text fill="#000000" font-family="sans-serif" font-size="12" lengthAdjust="spacing" textLength="91.5645" x="540.72" y="424.2355">JSON Response</text></g><!--link transaction to GMN36--><g class="link" data-entity-1="transaction" data-entity-2="GMN36" data-source-line="62" data-uid="lnk38" id="link_transaction_GMN36"><path d="M341.84,581.7869 C304.69,567.3269 264.04,544.1069 242.27,507.8969 C186.15,414.5769 183.47,354.5469 242.27,262.8969 C263.51,229.7869 301.74,209.7869 337.51,197.7969" fill="none" id="transaction-GMN36" style="stroke:#181818;stroke-width:1;stroke-dasharray:7.0,7.0;"/></g><!--link events to GMN39--><g class="link" data-entity-1="events" data-entity-2="GMN39" data-source-line="70" data-uid="lnk41" id="link_events_GMN39"><path d="M1002.26,644.2969 C968.33,616.3069 915.26,565.6769 893.63,507.8969 C873.68,454.6169 865.49,429.3369 893.63,379.8969 C910.28,350.6469 941.84,330.6869 970.68,317.7369" fill="none" id="events-GMN39" style="stroke:#181818;stroke-width:1;stroke-dasharray:7.0,7.0;"/></g><!--link validation to GMN42--><g class="link" data-entity-1="validation" data-entity-2="GMN42" data-source-line="78" data-uid="lnk44" id="link_validation_GMN42"><path d="M382.36,451.2369 C338.59,423.1969 270.69,371.4669 242.27,305.8969 C213.98,240.6569 201.91,204.4469 242.27,145.8969 C268.15,108.3369 317.58,91.3569 358.08,83.6869" fill="none" id="validation-GMN42" style="stroke:#181818;stroke-width:1;stroke-dasharray:7.0,7.0;"/></g><!--SRC=[TLRDRkCs4BxhAGRE8Pi0yUPdqwOz54qT6SqYRhnnjhqOM53os6QN8hKabSGj2lHP-cXzaivGiaGfsvlD-MRupSmt71t2HA7Gi5Rc6LPIRAmee79IRy39ebG8SoMq_pYx0xVJNhmaoI7S5gKrJmWUNpmetCXCAkbtYViiTIaumWhNeb9-QhHVo3yGpiuZeyNS2xrHs9dF8hCsFhAS9WhN7hm1ApTRJnpPNHgT95vwudSZl80fqxzfw9_00twfq7cOMvEZ2zdCPObAQaoIzdeOJPH4xU5ExD2EG3Z8wuE3z69wFhs1FnE02FxHeLtgdnyVv_iRWbD5nybVlS3NyziegYWbXRoQNgPNmv1dOs3iWwayntx072LLraRXRR3rtSx9hV9RcCdLIk6piBZKlmebLy8ZlF_jiRwM4T1tl1YtnMdmLCgbdcmn_mmkts8XWkzJQnnaja3x97ECidFDoS5qEhr8JuSPlYEgPQba7g91ux_KzvPkSzuoOweWvC9XKwtoKnEp7-bo38zMQ2T2_s4cjDXmqNxqtQbGfBtSK5HJiujiWqnkJ26aZX9PrGS7wIar_soOnpTZQ3ncPeLggJch7MGyBAGnK6OZyoZEfu9X_HXDWFI9HEQM-eqfQyv7mG_3yO3bhLvRGMMgSb_PkEoI3LJqIVekdGp9VijjBesJL8RTKeSP4JdF0eYCYnuAKikhnVL3N8tX_c56_QBvOOaiFjnTAnR83ao9DdJJXGZ65iFIqdqPzJCkRaPSBzBBwUMGwtTZc1ldDnRfYgLENp0dmGFz0HAgtTNkJKI-wB2LS7YrtlGUYAE4nn5EJdve1WU-Xr4yialzVd7_ori-MeoI1iFmC2u4vi6YHh1WSPI4KpPt4y6W_R2DakWyHEdKoxZc1Q8uqJdZ8bqoxYTwHNKixr4I8zWZbbLmsIllBYWlwTdPeTPJO55bIhfj9povPg8yb9d2ew_uTgfW_w2VwxpE938nahhF4DRAVQUBX8y3wxqK2CCj_H1QMZVHbGJ5felryqvjv7OU9QrVT0Tvq58XIVekVf_eZBB25QJKFY_nDTbX3UE9Tbyfmw2RRSdlizz9m5zfQrybROhCYxRGAxLq4cLHjYNfwJBekHFn7f7mdeJCU6yACElUGmTmVFpwgIoe-SV7PFptxtzuVPYJBAYE0FiK217UWHQHcwAGFa2gqF_OQ8rIcQ35GMPyoR5iBcT0ysxGHgNFYwfCKA_2Pd_5ktdrc7AG9pHYfNArP7dnKgStCkoBxf9hIsDARqZPkeHznwO94UTekSNOOqgKpVFRIg_3Z_-d5Ir0fjOjo_PBecMt26kpxy7dhLfifN1VkCTTYU346ls-pgcrni9Mw1L5tNIC_WC0]--></g></svg>